<svg width="39" height="52" viewBox="0 0 39 52" fill="none" xmlns="http://www.w3.org/2000/svg">
<path d="M10 27L29 27" stroke="#222222" stroke-width="2" stroke-linecap="round"/>
<path d="M10 36L21 36" stroke="#222222" stroke-width="2" stroke-linecap="round"/>
<path d="M1 3.4C1 2.55992 1 2.13988 1.16349 1.81901C1.3073 1.53677 1.53677 1.3073 1.81901 1.16349C2.13988 1 2.55992 1 3.4 1H22.752C23.1271 1 23.3147 1 23.4908 1.04319C23.6469 1.08147 23.7958 1.14459 23.9318 1.23013C24.0853 1.32662 24.2157 1.46143 24.4766 1.73103L37.3247 15.008C37.5741 15.2657 37.6988 15.3946 37.7879 15.5438C37.8669 15.6761 37.925 15.8198 37.9603 15.9698C38 16.139 38 16.3184 38 16.677V48.6C38 49.4401 38 49.8601 37.8365 50.181C37.6927 50.4632 37.4632 50.6927 37.181 50.8365C36.8601 51 36.4401 51 35.6 51H3.4C2.55992 51 2.13988 51 1.81901 50.8365C1.53677 50.6927 1.3073 50.4632 1.16349 50.181C1 49.8601 1 49.4401 1 48.6V3.4Z" stroke="#222222" stroke-width="2"/>
<path d="M21 1V15.6C21 16.4401 21 16.8601 21.1635 17.181C21.3073 17.4632 21.5368 17.6927 21.819 17.8365C22.1399 18 22.5599 18 23.4 18H38" stroke="#222222" stroke-width="2"/>
</svg>
