<svg width="50" height="50" viewBox="0 0 50 50" fill="none" xmlns="http://www.w3.org/2000/svg">
<path d="M25 49C30.5525 49 35.9333 47.0747 40.2254 43.5523C44.5176 40.0298 47.4556 35.128 48.5388 29.6822C49.6221 24.2363 48.7836 18.5834 46.1661 13.6865C43.5487 8.78959 39.3143 4.95175 34.1844 2.82689C29.0545 0.702032 23.3466 0.421618 18.0332 2.03343C12.7197 3.64524 8.12955 7.04955 5.04473 11.6663C1.95991 16.2831 0.571325 21.8266 1.11557 27.3524C1.65981 32.8782 4.1032 38.0443 8.02943 41.9706" stroke="#33363F" stroke-width="2" stroke-linecap="round"/>
<path d="M35.668 19.668L23.7367 33.9855C23.0811 34.7722 22.7533 35.1655 22.3128 35.1855C21.8722 35.2055 21.5101 34.8435 20.786 34.1194L14.3346 27.668" stroke="#33363F" stroke-width="2" stroke-linecap="round"/>
</svg>
