<svg width="811" height="990" viewBox="0 0 811 990" fill="none" xmlns="http://www.w3.org/2000/svg">
<path d="M105.963 653.926C105.963 653.926 82.5746 653.59 82.457 673.772" stroke="#263238" stroke-linecap="round" stroke-linejoin="round"/>
<path d="M104.018 666.658C103.531 663.686 93.3563 659.942 91.5933 667.699C89.8304 675.456 102.473 670.805 106.386 667.178C106.386 667.178 99.1321 674.23 101.348 676.211" stroke="#263238" stroke-linecap="round" stroke-linejoin="round"/>
<path d="M105.444 678.406C105.444 678.406 102.371 682.251 99.0469 680.421" stroke="#263238" stroke-linecap="round" stroke-linejoin="round"/>
<path d="M125.913 664.973L108.367 682.787C108.367 682.787 117.199 673.838 122.32 676.726C128.7 680.218 120.423 689.789 113.606 682.938" stroke="#263238" stroke-linecap="round" stroke-linejoin="round"/>
<path d="M134.777 669.777C134.777 669.777 139.428 691.084 115.418 691.84" stroke="#263238" stroke-linecap="round" stroke-linejoin="round"/>
<path d="M478.34 309.191L491.201 331.892" stroke="#263238" stroke-linecap="round" stroke-linejoin="round"/>
<path d="M494.508 311.844L471.488 328.651" stroke="#263238" stroke-linecap="round" stroke-linejoin="round"/>
<path d="M314.86 309.05C312.056 305.509 295.906 308.035 299.188 319.392C302.47 330.75 315.816 315.614 318.359 308.035C318.359 308.035 313.903 322.523 318.359 323.495" stroke="#263238" stroke-linecap="round" stroke-linejoin="round"/>
<path d="M577.134 454.793L571.258 476.033L584.102 490.103" stroke="#263238" stroke-linecap="round" stroke-linejoin="round"/>
<path d="M584.484 463.426L599.193 475.733" stroke="#263238" stroke-linecap="round" stroke-linejoin="round"/>
<path d="M594.614 460.406L588.25 476.038" stroke="#263238" stroke-linecap="round" stroke-linejoin="round"/>
<path d="M604.956 474.02C604.956 474.02 605.09 478.452 603.176 479.057" stroke="#263238" stroke-linecap="round" stroke-linejoin="round"/>
<path d="M606.816 458.539L615.698 465.138" stroke="#263238" stroke-linecap="round" stroke-linejoin="round"/>
<path d="M618.991 453.113L610.227 484.679" stroke="#263238" stroke-linecap="round" stroke-linejoin="round"/>
<path d="M619.43 442.152L633.668 458.271L627.607 475.901" stroke="#263238" stroke-linecap="round" stroke-linejoin="round"/>
<path d="M105.535 513.572C116.235 509.14 121.316 496.872 116.884 486.172C112.452 475.471 100.184 470.39 89.484 474.822C78.7837 479.255 73.7024 491.522 78.1346 502.222C82.5668 512.923 94.8342 518.004 105.535 513.572Z" stroke="#263238" stroke-linecap="round" stroke-linejoin="round"/>
<path d="M120.771 499.105C133.624 499.105 144.043 488.686 144.043 475.834C144.043 462.981 133.624 452.562 120.771 452.562C107.919 452.562 97.5 462.981 97.5 475.834C97.5 488.686 107.919 499.105 120.771 499.105Z" stroke="#263238" stroke-linecap="round" stroke-linejoin="round"/>
<path d="M101.631 473.633L98.793 483.489" stroke="#263238" stroke-linecap="round" stroke-linejoin="round"/>
<path d="M105.646 474.859L101.633 489.064" stroke="#263238" stroke-linecap="round" stroke-linejoin="round"/>
<path d="M109.859 477.242L105.645 493.31" stroke="#263238" stroke-linecap="round" stroke-linejoin="round"/>
<path d="M114.545 481.961L111.539 497.206" stroke="#263238" stroke-linecap="round" stroke-linejoin="round"/>
<path d="M117.179 486.934L114.543 498.267" stroke="#263238" stroke-linecap="round" stroke-linejoin="round"/>
<path d="M77.4536 467.317C75.6235 466.763 70.6032 471.531 74.4985 474.738C78.3938 477.945 79.3845 469.399 78.4274 466.125C78.4274 466.125 80.3919 472.287 82.1716 471.548" stroke="#263238" stroke-linecap="round" stroke-linejoin="round"/>
<path d="M104.52 440.402L111.236 452.626C111.236 452.626 107.878 446.514 110.245 444.231C113.133 441.41 116.961 447.37 112.126 449.872" stroke="#263238" stroke-linecap="round" stroke-linejoin="round"/>
<path d="M177.422 436.246L189.678 447.276" stroke="#263238" stroke-linecap="round" stroke-linejoin="round"/>
<path d="M189.676 432.57L179.871 448.503" stroke="#263238" stroke-linecap="round" stroke-linejoin="round"/>
<path d="M201.934 437.473L214.189 432.57" stroke="#263238" stroke-linecap="round" stroke-linejoin="round"/>
<path d="M220.316 420.316L227.67 426.444" stroke="#263238" stroke-linecap="round" stroke-linejoin="round"/>
<path d="M233.797 411.738L223.992 444.829" stroke="#263238" stroke-linecap="round" stroke-linejoin="round"/>
<path d="M684.946 415.405L684.543 396.23H699.033C699.033 396.23 691.007 400.663 694.701 410.972C698.395 421.281 704.339 415.405 704.339 415.405" stroke="#263238" stroke-linecap="round" stroke-linejoin="round"/>
<path d="M660.395 742.495L676.883 731.145L698.71 732.672L700.07 760.343L684.052 771.81L664.273 770.366L660.395 742.495Z" stroke="#263238" stroke-linecap="round" stroke-linejoin="round"/>
<path d="M664.27 770.367L680.22 758.883L700.066 760.344" stroke="#263238" stroke-linecap="round" stroke-linejoin="round"/>
<path d="M680.241 758.882L676.883 731.145" stroke="#263238" stroke-linecap="round" stroke-linejoin="round"/>
<path d="M660.395 742.494L682.171 745.013L698.71 732.672" stroke="#263238" stroke-linecap="round" stroke-linejoin="round"/>
<path d="M682.172 745.012L684.052 771.809" stroke="#263238" stroke-linecap="round" stroke-linejoin="round"/>
<path d="M663.4 534.668L662.695 571.556L695.016 556.881L663.4 534.668Z" stroke="#263238" stroke-linecap="round" stroke-linejoin="round"/>
<path d="M663.398 534.668L678.795 564.034" stroke="#263238" stroke-linecap="round" stroke-linejoin="round"/>
<path d="M676.332 559.317L680.076 557.504L682.595 562.524" stroke="#263238" stroke-linecap="round" stroke-linejoin="round"/>
<path d="M107.562 276.923C108.39 266.2 111.855 255.863 117.639 246.866C123.423 237.87 131.338 230.504 140.653 225.449" stroke="#263238" stroke-linecap="round" stroke-linejoin="round"/>
<path d="M156.585 343.107C140.38 339.361 126.318 329.693 117.367 316.145" stroke="#263238" stroke-linecap="round" stroke-linejoin="round"/>
<path d="M233.797 286.73C232.463 303.271 224.615 318.606 211.977 329.37C199.339 340.133 182.944 345.444 166.391 344.137" stroke="#263238" stroke-linecap="round" stroke-linejoin="round"/>
<path d="M176.195 218.098C190.556 219.265 204.093 225.368 214.568 235.396C225.042 245.425 231.826 258.779 233.797 273.248" stroke="#263238" stroke-linecap="round" stroke-linejoin="round"/>
<path d="M198.256 329.866C189.41 334.799 179.381 337.249 169.242 336.955C159.103 336.66 149.235 333.633 140.694 328.195C132.153 322.758 125.259 315.115 120.75 306.084C116.241 297.054 114.287 286.975 115.096 276.926" stroke="#263238" stroke-linecap="round" stroke-linejoin="round"/>
<path d="M118.594 261.277C121.529 253.63 126.107 246.724 132.002 241.046C137.897 235.369 144.965 231.059 152.707 228.423C160.449 225.786 168.674 224.887 176.801 225.789C184.928 226.691 192.758 229.372 199.736 233.643C206.714 237.913 212.67 243.668 217.182 250.501C221.693 257.333 224.651 265.076 225.845 273.181C227.039 281.286 226.441 289.555 224.092 297.402C221.742 305.25 217.7 312.484 212.251 318.592" stroke="#263238" stroke-linecap="round" stroke-linejoin="round"/>
<path d="M165.164 241.383L170.707 281.826L201.931 272.155" stroke="#263238" stroke-linecap="round" stroke-linejoin="round"/>
<path d="M592.194 380.5C585.369 380.566 578.685 378.557 573.027 374.739C567.37 370.921 563.006 365.474 560.514 359.12C558.021 352.766 557.518 345.805 559.071 339.159C560.623 332.512 564.159 326.494 569.208 321.902" stroke="#263238" stroke-linecap="round" stroke-linejoin="round"/>
<path d="M623.74 357.711C622.104 362.536 619.391 366.926 615.807 370.548C612.224 374.169 607.863 376.928 603.055 378.615" stroke="#263238" stroke-linecap="round" stroke-linejoin="round"/>
<path d="M580.695 315.05C589.121 312.086 598.378 312.589 606.433 316.449C614.487 320.309 620.678 327.211 623.645 335.635" stroke="#263238" stroke-linecap="round" stroke-linejoin="round"/>
<path d="M608.496 322.184C611.977 324.536 614.919 327.599 617.129 331.171C619.339 334.743 620.766 338.743 621.318 342.907C621.869 347.072 621.531 351.305 620.326 355.329C619.122 359.353 617.078 363.076 614.329 366.253C611.58 369.429 608.19 371.987 604.38 373.757C600.571 375.527 596.43 376.47 592.23 376.523C588.029 376.576 583.866 375.738 580.013 374.064C576.161 372.39 572.707 369.918 569.879 366.812" stroke="#263238" stroke-linecap="round" stroke-linejoin="round"/>
<path d="M563.818 356.674C562.031 351.589 561.66 346.114 562.746 340.835C563.831 335.556 566.332 330.671 569.98 326.704C573.628 322.737 578.286 319.836 583.456 318.313C588.626 316.79 594.113 316.701 599.329 318.057" stroke="#263238" stroke-linecap="round" stroke-linejoin="round"/>
<path d="M580.527 328.465L591.877 346.817L581.535 360.232" stroke="#263238" stroke-linecap="round" stroke-linejoin="round"/>
<path d="M209.285 845.586C209.262 839.07 210.813 832.647 213.804 826.879C216.795 821.11 221.134 816.172 226.443 812.496" stroke="#263238" stroke-linecap="round" stroke-linejoin="round"/>
<path d="M276.693 872.436C272.086 877.396 266.306 881.056 259.913 883.061C253.52 885.066 246.73 885.349 240.199 883.882C233.669 882.414 227.618 879.247 222.632 874.686C217.646 870.125 213.894 864.324 211.738 857.844" stroke="#263238" stroke-linecap="round" stroke-linejoin="round"/>
<path d="M248.504 805.145C258.905 805.145 268.88 809.406 276.235 816.99C283.59 824.575 287.722 834.862 287.722 845.588" stroke="#263238" stroke-linecap="round" stroke-linejoin="round"/>
<path d="M248.503 879.902C239.402 879.902 230.674 876.286 224.238 869.851C217.803 863.415 214.188 854.687 214.188 845.586" stroke="#263238" stroke-linecap="round" stroke-linejoin="round"/>
<path d="M221.543 822.917C224.737 818.945 228.763 815.732 233.333 813.508C237.904 811.283 242.906 810.102 247.982 810.049C253.058 809.995 258.084 811.071 262.699 813.199C267.315 815.327 271.406 818.454 274.682 822.358C277.958 826.262 280.337 830.846 281.649 835.782C282.962 840.719 283.175 845.886 282.274 850.915C281.372 855.944 279.379 860.71 276.436 864.874C273.493 869.038 269.673 872.496 265.249 875.002" stroke="#263238" stroke-linecap="round" stroke-linejoin="round"/>
<path d="M243.232 868.871L248.502 845.269L241.148 825.977" stroke="#263238" stroke-linecap="round" stroke-linejoin="round"/>
<path d="M66.3398 930.176H745.639" stroke="#263238" stroke-linecap="round" stroke-linejoin="round"/>
<path d="M409.879 467.176L398.814 677.843L258.633 670.488L259.808 648.157L269.698 459.805L357.964 464.439L409.879 467.176Z" fill="white"/>
<mask id="mask0_1464_5935" style="mask-type:luminance" maskUnits="userSpaceOnUse" x="258" y="459" width="152" height="219">
<path d="M409.879 467.172L398.814 677.839L258.633 670.485L259.808 648.154L269.698 459.801L357.964 464.435L409.879 467.172Z" fill="white"/>
</mask>
<g mask="url(#mask0_1464_5935)">
<path opacity="0.2" d="M366.128 590.597L334.546 593.199L343.764 632.975L259.812 648.154L269.702 459.801L357.968 464.435L366.128 590.597Z" fill="black" fill-opacity="0.7"/>
</g>
<path d="M409.879 467.176L398.814 677.843L258.633 670.488L259.808 648.157L269.698 459.805L357.964 464.439L409.879 467.176Z" stroke="#263238" stroke-linecap="round" stroke-linejoin="round"/>
<path d="M279.59 474.215L316.075 476.129" stroke="#263238" stroke-width="2" stroke-linecap="round" stroke-linejoin="round"/>
<path d="M279.219 481.211L304.035 482.521" stroke="#263238" stroke-width="2" stroke-linecap="round" stroke-linejoin="round"/>
<path d="M287.242 498.223L392.181 503.73" stroke="#263238" stroke-width="2" stroke-linecap="round" stroke-linejoin="round"/>
<path d="M286.875 505.219L391.814 510.726" stroke="#263238" stroke-width="2" stroke-linecap="round" stroke-linejoin="round"/>
<path d="M286.453 513.398L375.945 518.083" stroke="#263238" stroke-width="2" stroke-linecap="round" stroke-linejoin="round"/>
<path d="M286.492 520.856L286.043 529.391L294.577 529.839L295.026 521.305L286.492 520.856Z" stroke="#263238" stroke-linecap="round" stroke-linejoin="round"/>
<path d="M301.96 521.677L301.512 530.211L310.046 530.66L310.495 522.125L301.96 521.677Z" stroke="#263238" stroke-linecap="round" stroke-linejoin="round"/>
<path d="M317.414 522.497L316.965 531.031L325.499 531.48L325.948 522.946L317.414 522.497Z" stroke="#263238" stroke-linecap="round" stroke-linejoin="round"/>
<path d="M332.878 523.317L332.43 531.852L340.964 532.3L341.413 523.766L332.878 523.317Z" stroke="#263238" stroke-linecap="round" stroke-linejoin="round"/>
<path d="M281.655 497.92C281.644 498.197 281.579 498.47 281.463 498.723C281.346 498.976 281.181 499.203 280.977 499.391C280.772 499.58 280.533 499.727 280.272 499.823C280.011 499.919 279.734 499.962 279.456 499.951C278.89 499.922 278.359 499.67 277.98 499.249C277.6 498.829 277.404 498.275 277.432 497.71C277.461 497.144 277.714 496.613 278.134 496.234C278.555 495.854 279.108 495.657 279.674 495.686C279.952 495.699 280.225 495.767 280.476 495.885C280.728 496.004 280.954 496.171 281.141 496.377C281.328 496.582 281.473 496.823 281.567 497.085C281.661 497.347 281.702 497.625 281.689 497.903L281.655 497.92Z" fill="#263238"/>
<path d="M285.094 539.07L390.033 544.578" stroke="#263238" stroke-width="2" stroke-linecap="round" stroke-linejoin="round"/>
<path d="M284.727 546.07L389.665 551.578" stroke="#263238" stroke-width="2" stroke-linecap="round" stroke-linejoin="round"/>
<path d="M284.305 554.246L373.797 558.931" stroke="#263238" stroke-width="2" stroke-linecap="round" stroke-linejoin="round"/>
<path d="M284.324 561.735L283.875 570.27L292.409 570.718L292.858 562.184L284.324 561.735Z" stroke="#263238" stroke-linecap="round" stroke-linejoin="round"/>
<path d="M299.808 562.536L299.359 571.07L307.894 571.519L308.343 562.985L299.808 562.536Z" stroke="#263238" stroke-linecap="round" stroke-linejoin="round"/>
<path d="M315.261 563.341L314.812 571.875L323.347 572.324L323.796 563.789L315.261 563.341Z" stroke="#263238" stroke-linecap="round" stroke-linejoin="round"/>
<path d="M330.71 564.161L330.262 572.695L338.796 573.144L339.245 564.61L330.71 564.161Z" stroke="#263238" stroke-linecap="round" stroke-linejoin="round"/>
<path d="M279.521 538.772C279.509 539.052 279.44 539.327 279.321 539.581C279.202 539.835 279.034 540.062 278.826 540.251C278.619 540.44 278.376 540.586 278.112 540.681C277.848 540.775 277.568 540.817 277.288 540.804C276.864 540.783 276.455 540.638 276.114 540.385C275.772 540.132 275.513 539.784 275.369 539.384C275.225 538.985 275.203 538.551 275.306 538.139C275.408 537.727 275.63 537.354 275.945 537.068C276.259 536.782 276.651 536.595 277.071 536.532C277.491 536.468 277.92 536.531 278.305 536.712C278.689 536.892 279.012 537.183 279.231 537.546C279.451 537.91 279.558 538.331 279.538 538.755L279.521 538.772Z" fill="#263238"/>
<path d="M282.965 579.922L387.887 585.429" stroke="#263238" stroke-width="2" stroke-linecap="round" stroke-linejoin="round"/>
<path d="M282.594 586.922L387.516 592.429" stroke="#263238" stroke-width="2" stroke-linecap="round" stroke-linejoin="round"/>
<path d="M282.156 595.086L371.648 599.787" stroke="#263238" stroke-width="2" stroke-linecap="round" stroke-linejoin="round"/>
<path d="M282.191 602.559L281.742 611.094L290.277 611.543L290.725 603.008L282.191 602.559Z" stroke="#263238" stroke-linecap="round" stroke-linejoin="round"/>
<path d="M299.47 603.33L299.043 611.883L307.595 612.31L308.023 603.758L299.47 603.33Z" stroke="#263238" stroke-width="1.00125" stroke-linecap="round" stroke-linejoin="round"/>
<path d="M313.113 604.2L312.664 612.734L321.198 613.183L321.647 604.649L313.113 604.2Z" stroke="#263238" stroke-linecap="round" stroke-linejoin="round"/>
<path d="M328.597 605.005L328.148 613.539L336.683 613.988L337.132 605.453L328.597 605.005Z" stroke="#263238" stroke-linecap="round" stroke-linejoin="round"/>
<path d="M277.371 579.618C277.358 579.898 277.29 580.173 277.17 580.427C277.051 580.681 276.883 580.909 276.675 581.097C276.468 581.286 276.225 581.432 275.961 581.527C275.698 581.622 275.418 581.663 275.137 581.65C274.567 581.65 274.021 581.423 273.618 581.02C273.215 580.617 272.988 580.071 272.988 579.501C272.988 578.931 273.215 578.384 273.618 577.981C274.021 577.578 274.567 577.352 275.137 577.352H275.44C275.72 577.364 275.995 577.433 276.248 577.552C276.502 577.671 276.73 577.839 276.919 578.047C277.107 578.254 277.253 578.497 277.348 578.761C277.443 579.025 277.485 579.305 277.471 579.585L277.371 579.618Z" fill="#263238"/>
<path d="M280.746 621.934L385.668 627.458" stroke="#263238" stroke-width="2" stroke-linecap="round" stroke-linejoin="round"/>
<path d="M280.379 628.93L385.318 634.454" stroke="#263238" stroke-width="2" stroke-linecap="round" stroke-linejoin="round"/>
<path d="M279.957 637.109L369.449 641.811" stroke="#263238" stroke-width="2" stroke-linecap="round" stroke-linejoin="round"/>
<path d="M279.964 644.591L279.516 653.125L288.05 653.574L288.499 645.039L279.964 644.591Z" stroke="#263238" stroke-linecap="round" stroke-linejoin="round"/>
<path d="M295.453 645.391L295.004 653.926L303.538 654.375L303.987 645.84L295.453 645.391Z" stroke="#263238" stroke-linecap="round" stroke-linejoin="round"/>
<path d="M310.941 646.196L310.492 654.73L319.027 655.179L319.475 646.645L310.941 646.196Z" stroke="#263238" stroke-linecap="round" stroke-linejoin="round"/>
<path d="M326.394 647.032L325.945 655.566L334.48 656.015L334.929 647.481L326.394 647.032Z" stroke="#263238" stroke-linecap="round" stroke-linejoin="round"/>
<path d="M275.156 621.647C275.132 622.068 274.984 622.473 274.731 622.809C274.477 623.146 274.129 623.4 273.732 623.539C273.334 623.679 272.904 623.697 272.496 623.592C272.087 623.487 271.72 623.263 271.438 622.949C271.157 622.635 270.975 622.245 270.916 621.828C270.856 621.411 270.922 620.985 271.104 620.605C271.286 620.225 271.577 619.908 271.939 619.693C272.302 619.478 272.72 619.375 273.141 619.398C273.421 619.413 273.696 619.483 273.949 619.604C274.202 619.725 274.428 619.895 274.615 620.104C274.803 620.313 274.947 620.557 275.039 620.822C275.132 621.087 275.172 621.367 275.156 621.647Z" fill="#263238"/>
<path d="M289.395 524.411L290.503 526.325L295.053 521.305" stroke="#263238" stroke-width="2" stroke-linecap="round" stroke-linejoin="round"/>
<path d="M318.203 566.372L319.311 568.286L323.861 563.266" stroke="#263238" stroke-width="2" stroke-linecap="round" stroke-linejoin="round"/>
<path d="M332.66 609.49L333.768 611.404L338.318 606.367" stroke="#263238" stroke-width="2" stroke-linecap="round" stroke-linejoin="round"/>
<path d="M298.406 647.971L299.514 649.868L304.065 644.848" stroke="#263238" stroke-width="2" stroke-linecap="round" stroke-linejoin="round"/>
<path d="M316.728 618.223L181.482 655.817L125 452.537L180.995 436.973L260.245 414.961L311.489 599.385L316.728 618.223Z" fill="white"/>
<mask id="mask1_1464_5935" style="mask-type:luminance" maskUnits="userSpaceOnUse" x="125" y="414" width="192" height="242">
<path d="M316.731 618.22L181.486 655.813L125.004 452.534L180.999 436.969L260.249 414.957L311.493 599.381L316.731 618.22Z" fill="white"/>
</mask>
<g mask="url(#mask1_1464_5935)">
<path opacity="0.2" d="M311.494 599.381L206.924 606.147L181 436.969L260.25 414.957L311.494 599.381Z" fill="black" fill-opacity="0.7"/>
</g>
<path d="M316.728 618.223L181.482 655.817L125 452.537L180.995 436.973L260.245 414.961L311.489 599.385L316.728 618.223Z" stroke="#263238" stroke-linecap="round" stroke-linejoin="round"/>
<path d="M138.969 463.045L174.161 453.273" stroke="#263238" stroke-width="2" stroke-linecap="round" stroke-linejoin="round"/>
<path d="M140.832 469.813L164.775 463.164" stroke="#263238" stroke-width="2" stroke-linecap="round" stroke-linejoin="round"/>
<path d="M153.844 483.378L255.089 455.254" stroke="#263238" stroke-width="2" stroke-linecap="round" stroke-linejoin="round"/>
<path d="M155.727 490.128L256.972 462.004" stroke="#263238" stroke-width="2" stroke-linecap="round" stroke-linejoin="round"/>
<path d="M157.91 498.021L244.262 474.027" stroke="#263238" stroke-width="2" stroke-linecap="round" stroke-linejoin="round"/>
<path d="M168.578 502.794L160.344 505.082L162.632 513.316L170.866 511.028L168.578 502.794Z" stroke="#263238" stroke-linecap="round" stroke-linejoin="round"/>
<path d="M183.508 498.634L175.273 500.922L177.562 509.156L185.796 506.868L183.508 498.634Z" stroke="#263238" stroke-linecap="round" stroke-linejoin="round"/>
<path d="M198.441 494.477L190.207 496.766L192.495 505L200.729 502.712L198.441 494.477Z" stroke="#263238" stroke-linecap="round" stroke-linejoin="round"/>
<path d="M213.348 490.341L205.113 492.629L207.401 500.863L215.636 498.575L213.348 490.341Z" stroke="#263238" stroke-linecap="round" stroke-linejoin="round"/>
<path d="M148.457 484.872C148.608 485.418 148.537 486.001 148.258 486.494C147.98 486.987 147.517 487.349 146.971 487.5C146.426 487.651 145.842 487.58 145.349 487.301C144.857 487.023 144.495 486.559 144.343 486.014C144.192 485.469 144.263 484.885 144.542 484.392C144.821 483.9 145.284 483.538 145.829 483.386C146.375 483.235 146.958 483.306 147.451 483.585C147.944 483.864 148.306 484.327 148.457 484.872Z" fill="#263238"/>
<path d="M164.793 522.784L266.038 494.66" stroke="#263238" stroke-width="2" stroke-linecap="round" stroke-linejoin="round"/>
<path d="M166.676 529.551L267.921 501.41" stroke="#263238" stroke-width="2" stroke-linecap="round" stroke-linejoin="round"/>
<path d="M168.871 537.423L255.206 513.43" stroke="#263238" stroke-width="2" stroke-linecap="round" stroke-linejoin="round"/>
<path d="M179.539 542.192L171.305 544.48L173.593 552.715L181.827 550.426L179.539 542.192Z" stroke="#263238" stroke-linecap="round" stroke-linejoin="round"/>
<path d="M194.457 538.052L186.223 540.34L188.511 548.574L196.745 546.286L194.457 538.052Z" stroke="#263238" stroke-linecap="round" stroke-linejoin="round"/>
<path d="M209.387 533.903L201.152 536.191L203.441 544.426L211.675 542.137L209.387 533.903Z" stroke="#263238" stroke-linecap="round" stroke-linejoin="round"/>
<path d="M224.332 529.735L216.098 532.023L218.386 540.258L226.62 537.969L224.332 529.735Z" stroke="#263238" stroke-linecap="round" stroke-linejoin="round"/>
<path d="M159.419 524.294C159.533 524.703 159.523 525.137 159.39 525.541C159.257 525.944 159.008 526.299 158.673 526.561C158.339 526.823 157.934 526.98 157.511 527.012C157.087 527.044 156.664 526.95 156.294 526.741C155.924 526.533 155.624 526.219 155.431 525.84C155.239 525.462 155.164 525.034 155.215 524.613C155.265 524.191 155.44 523.794 155.716 523.471C155.992 523.148 156.358 522.915 156.766 522.8C157.037 522.723 157.319 522.701 157.598 522.733C157.877 522.766 158.146 522.854 158.391 522.991C158.636 523.128 158.852 523.313 159.025 523.533C159.199 523.754 159.327 524.007 159.403 524.277L159.419 524.294Z" fill="#263238"/>
<path d="M175.754 562.211L276.982 534.07" stroke="#263238" stroke-width="2" stroke-linecap="round" stroke-linejoin="round"/>
<path d="M177.637 568.956L278.865 540.832" stroke="#263238" stroke-width="2" stroke-linecap="round" stroke-linejoin="round"/>
<path d="M179.82 576.849L266.172 552.855" stroke="#263238" stroke-width="2" stroke-linecap="round" stroke-linejoin="round"/>
<path d="M190.476 581.599L182.242 583.887L184.53 592.121L192.765 589.833L190.476 581.599Z" stroke="#263238" stroke-linecap="round" stroke-linejoin="round"/>
<path d="M205.43 577.446L197.195 579.734L199.484 587.969L207.718 585.68L205.43 577.446Z" stroke="#263238" stroke-linecap="round" stroke-linejoin="round"/>
<path d="M220.324 573.306L212.09 575.594L214.378 583.828L222.612 581.54L220.324 573.306Z" stroke="#263238" stroke-linecap="round" stroke-linejoin="round"/>
<path d="M235.258 569.161L227.023 571.449L229.312 579.683L237.546 577.395L235.258 569.161Z" stroke="#263238" stroke-linecap="round" stroke-linejoin="round"/>
<path d="M170.369 563.704C170.482 564.114 170.472 564.547 170.339 564.951C170.206 565.354 169.957 565.709 169.622 565.971C169.288 566.233 168.883 566.39 168.46 566.422C168.036 566.454 167.613 566.36 167.243 566.151C166.873 565.943 166.573 565.629 166.381 565.251C166.189 564.872 166.113 564.445 166.164 564.023C166.214 563.601 166.389 563.204 166.665 562.881C166.941 562.559 167.307 562.325 167.716 562.21C167.986 562.133 168.268 562.111 168.547 562.144C168.826 562.176 169.096 562.264 169.341 562.401C169.586 562.538 169.801 562.723 169.974 562.944C170.148 563.164 170.276 563.417 170.352 563.688L170.369 563.704Z" fill="#263238"/>
<path d="M187.023 602.741L288.252 574.617" stroke="#263238" stroke-width="2" stroke-linecap="round" stroke-linejoin="round"/>
<path d="M188.887 609.504L290.132 581.363" stroke="#263238" stroke-width="2" stroke-linecap="round" stroke-linejoin="round"/>
<path d="M191.086 617.384L277.438 593.391" stroke="#263238" stroke-width="2" stroke-linecap="round" stroke-linejoin="round"/>
<path d="M201.746 622.153L193.512 624.441L195.8 632.676L204.034 630.387L201.746 622.153Z" stroke="#263238" stroke-linecap="round" stroke-linejoin="round"/>
<path d="M216.68 618.001L208.445 620.289L210.734 628.523L218.968 626.235L216.68 618.001Z" stroke="#263238" stroke-linecap="round" stroke-linejoin="round"/>
<path d="M231.609 613.852L223.375 616.141L225.663 624.375L233.897 622.087L231.609 613.852Z" stroke="#263238" stroke-linecap="round" stroke-linejoin="round"/>
<path d="M246.527 609.708L238.293 611.996L240.581 620.23L248.815 617.942L246.527 609.708Z" stroke="#263238" stroke-linecap="round" stroke-linejoin="round"/>
<path d="M181.634 604.232C181.792 604.779 181.726 605.368 181.451 605.867C181.175 606.366 180.713 606.735 180.165 606.893C179.617 607.051 179.029 606.985 178.53 606.71C178.031 606.434 177.662 605.972 177.504 605.424C177.348 604.874 177.416 604.285 177.693 603.785C177.97 603.285 178.433 602.914 178.981 602.754C179.525 602.603 180.105 602.672 180.598 602.945C181.091 603.218 181.457 603.674 181.617 604.215L181.634 604.232Z" fill="#263238"/>
<path d="M178.258 503.611L179.92 505.072L182.64 498.859" stroke="#263238" stroke-width="2" stroke-linecap="round" stroke-linejoin="round"/>
<path d="M174.215 547.584L175.877 549.044L178.58 542.832" stroke="#263238" stroke-width="2" stroke-linecap="round" stroke-linejoin="round"/>
<path d="M185.156 586.588L186.818 588.048L189.522 581.836" stroke="#263238" stroke-width="2" stroke-linecap="round" stroke-linejoin="round"/>
<path d="M226.242 618.541L227.904 620.001L230.624 613.789" stroke="#263238" stroke-width="2" stroke-linecap="round" stroke-linejoin="round"/>
<path d="M329.937 368.001L190.215 381.43L210.399 591.431L350.121 578.002L329.937 368.001Z" fill="white" stroke="#263238" stroke-linecap="round" stroke-linejoin="round"/>
<path d="M202.121 394.238L238.489 390.746" stroke="#263238" stroke-width="2" stroke-linecap="round" stroke-linejoin="round"/>
<path d="M202.789 401.224L227.521 398.84" stroke="#263238" stroke-width="2" stroke-linecap="round" stroke-linejoin="round"/>
<path d="M213.23 416.854L317.817 406.797" stroke="#263238" stroke-width="2" stroke-linecap="round" stroke-linejoin="round"/>
<path d="M213.906 423.822L318.493 413.781" stroke="#263238" stroke-width="2" stroke-linecap="round" stroke-linejoin="round"/>
<path d="M214.691 431.969L303.898 423.406" stroke="#263238" stroke-width="2" stroke-linecap="round" stroke-linejoin="round"/>
<path d="M224.374 438.514L215.867 439.332L216.685 447.839L225.192 447.021L224.374 438.514Z" stroke="#263238" stroke-linecap="round" stroke-linejoin="round"/>
<path d="M239.796 437.03L231.289 437.848L232.107 446.355L240.614 445.537L239.796 437.03Z" stroke="#263238" stroke-linecap="round" stroke-linejoin="round"/>
<path d="M255.218 435.561L246.711 436.379L247.529 444.886L256.036 444.068L255.218 435.561Z" stroke="#263238" stroke-linecap="round" stroke-linejoin="round"/>
<path d="M270.632 434.057L262.125 434.875L262.943 443.382L271.45 442.564L270.632 434.057Z" stroke="#263238" stroke-linecap="round" stroke-linejoin="round"/>
<path d="M207.675 417.395C207.716 417.817 207.631 418.243 207.43 418.618C207.229 418.992 206.922 419.299 206.547 419.499C206.172 419.699 205.747 419.783 205.324 419.741C204.901 419.699 204.5 419.533 204.172 419.263C203.843 418.993 203.602 418.632 203.479 418.226C203.356 417.819 203.356 417.385 203.479 416.978C203.603 416.572 203.844 416.211 204.172 415.941C204.501 415.672 204.901 415.505 205.324 415.464C205.603 415.436 205.885 415.463 206.153 415.544C206.422 415.626 206.671 415.759 206.888 415.937C207.105 416.115 207.285 416.333 207.417 416.581C207.549 416.828 207.631 417.099 207.658 417.378L207.675 417.395Z" fill="#263238"/>
<path d="M217.148 457.572L321.735 447.531" stroke="#263238" stroke-width="2" stroke-linecap="round" stroke-linejoin="round"/>
<path d="M217.816 464.557L322.403 454.5" stroke="#263238" stroke-width="2" stroke-linecap="round" stroke-linejoin="round"/>
<path d="M218.605 472.701L307.812 464.121" stroke="#263238" stroke-width="2" stroke-linecap="round" stroke-linejoin="round"/>
<path d="M228.288 479.225L219.781 480.043L220.599 488.55L229.106 487.732L228.288 479.225Z" stroke="#263238" stroke-linecap="round" stroke-linejoin="round"/>
<path d="M243.706 477.757L235.199 478.574L236.017 487.081L244.524 486.264L243.706 477.757Z" stroke="#263238" stroke-linecap="round" stroke-linejoin="round"/>
<path d="M259.128 476.272L250.621 477.09L251.439 485.597L259.946 484.779L259.128 476.272Z" stroke="#263238" stroke-linecap="round" stroke-linejoin="round"/>
<path d="M274.546 474.819L266.039 475.637L266.857 484.144L275.364 483.326L274.546 474.819Z" stroke="#263238" stroke-linecap="round" stroke-linejoin="round"/>
<path d="M211.589 458.109C211.63 458.532 211.545 458.958 211.344 459.332C211.143 459.707 210.836 460.013 210.461 460.213C210.086 460.413 209.661 460.498 209.238 460.456C208.815 460.414 208.414 460.248 208.086 459.978C207.757 459.708 207.516 459.347 207.393 458.941C207.27 458.534 207.27 458.1 207.393 457.693C207.517 457.287 207.758 456.926 208.086 456.656C208.415 456.386 208.816 456.22 209.238 456.178C209.52 456.151 209.803 456.178 210.074 456.261C210.344 456.343 210.596 456.477 210.814 456.656C211.032 456.836 211.213 457.056 211.346 457.306C211.479 457.555 211.562 457.828 211.589 458.109Z" fill="#263238"/>
<path d="M221.059 498.291L325.645 488.25" stroke="#263238" stroke-width="2" stroke-linecap="round" stroke-linejoin="round"/>
<path d="M221.73 505.272L326.317 495.215" stroke="#263238" stroke-width="2" stroke-linecap="round" stroke-linejoin="round"/>
<path d="M222.52 513.416L311.726 504.836" stroke="#263238" stroke-width="2" stroke-linecap="round" stroke-linejoin="round"/>
<path d="M232.198 519.952L223.691 520.77L224.509 529.277L233.016 528.459L232.198 519.952Z" stroke="#263238" stroke-linecap="round" stroke-linejoin="round"/>
<path d="M247.62 518.468L239.113 519.285L239.931 527.792L248.438 526.975L247.62 518.468Z" stroke="#263238" stroke-linecap="round" stroke-linejoin="round"/>
<path d="M263.038 516.999L254.531 517.816L255.349 526.323L263.856 525.506L263.038 516.999Z" stroke="#263238" stroke-linecap="round" stroke-linejoin="round"/>
<path d="M278.46 515.51L269.953 516.328L270.771 524.835L279.278 524.018L278.46 515.51Z" stroke="#263238" stroke-linecap="round" stroke-linejoin="round"/>
<path d="M215.483 498.826C215.521 499.246 215.433 499.668 215.232 500.039C215.03 500.409 214.723 500.711 214.35 500.907C213.976 501.103 213.553 501.184 213.134 501.14C212.715 501.095 212.318 500.927 211.994 500.657C211.67 500.387 211.433 500.027 211.314 499.623C211.194 499.218 211.198 498.788 211.323 498.385C211.448 497.982 211.69 497.626 212.018 497.361C212.346 497.096 212.746 496.934 213.166 496.896C213.444 496.87 213.726 496.9 213.993 496.983C214.26 497.066 214.509 497.202 214.724 497.381C214.939 497.56 215.117 497.78 215.247 498.028C215.377 498.276 215.457 498.547 215.483 498.826Z" fill="#263238"/>
<path d="M225.086 540.182L329.672 530.125" stroke="#263238" stroke-width="2" stroke-linecap="round" stroke-linejoin="round"/>
<path d="M225.758 547.15L330.344 537.109" stroke="#263238" stroke-width="2" stroke-linecap="round" stroke-linejoin="round"/>
<path d="M226.531 555.29L315.738 546.727" stroke="#263238" stroke-width="2" stroke-linecap="round" stroke-linejoin="round"/>
<path d="M236.218 561.839L227.711 562.656L228.529 571.163L237.036 570.346L236.218 561.839Z" stroke="#263238" stroke-linecap="round" stroke-linejoin="round"/>
<path d="M251.659 560.366L243.152 561.184L243.97 569.691L252.477 568.873L251.659 560.366Z" stroke="#263238" stroke-linecap="round" stroke-linejoin="round"/>
<path d="M267.062 558.862L258.555 559.68L259.372 568.187L267.879 567.369L267.062 558.862Z" stroke="#263238" stroke-linecap="round" stroke-linejoin="round"/>
<path d="M282.48 557.382L273.973 558.199L274.79 566.706L283.297 565.889L282.48 557.382Z" stroke="#263238" stroke-linecap="round" stroke-linejoin="round"/>
<path d="M219.513 540.698C219.558 541.122 219.476 541.55 219.277 541.927C219.078 542.304 218.771 542.613 218.396 542.816C218.021 543.018 217.594 543.104 217.169 543.063C216.745 543.022 216.342 542.856 216.013 542.586C215.683 542.315 215.441 541.953 215.318 541.545C215.195 541.137 215.196 540.701 215.321 540.294C215.446 539.886 215.69 539.525 216.02 539.256C216.351 538.987 216.755 538.823 217.179 538.784C217.458 538.756 217.74 538.784 218.008 538.865C218.276 538.946 218.526 539.079 218.743 539.257C218.96 539.435 219.139 539.654 219.271 539.901C219.404 540.148 219.486 540.419 219.513 540.698Z" fill="#263238"/>
<path d="M219.227 442.443L220.603 444.173L224.364 438.531" stroke="#263238" stroke-width="2" stroke-linecap="round" stroke-linejoin="round"/>
<path d="M253.934 479.686L255.31 481.415L259.055 475.773" stroke="#263238" stroke-width="2" stroke-linecap="round" stroke-linejoin="round"/>
<path d="M242.496 522.732L243.873 524.462L247.634 518.82" stroke="#263238" stroke-width="2" stroke-linecap="round" stroke-linejoin="round"/>
<path d="M277.137 561.334L278.514 563.063L282.275 557.422" stroke="#263238" stroke-width="2" stroke-linecap="round" stroke-linejoin="round"/>
<path d="M482.625 680.098L549.765 927.756H559.799L492.676 680.098H482.625Z" fill="#757575" stroke="#263238" stroke-linecap="round" stroke-linejoin="round"/>
<path d="M633.837 857.551H506.574V867.918H633.837V857.551Z" fill="#999999" stroke="#263238" stroke-linecap="round" stroke-linejoin="round"/>
<path d="M701.734 624.476L619.509 927.839H609.508L691.716 624.476C694.75 613.291 687.799 604.19 676.215 604.19H605.374C593.806 604.19 581.905 613.291 578.872 624.476L496.63 927.839H486.629L568.854 624.476C573.338 607.924 590.873 594.473 608.008 594.473H678.865C695.95 594.473 706.218 607.907 701.734 624.476Z" fill="#757575" stroke="#263238" stroke-linecap="round" stroke-linejoin="round"/>
<path d="M703.028 624.564L682.626 699.871C681.642 703.041 679.701 705.829 677.068 707.849C674.435 709.87 671.241 711.025 667.924 711.156H551.512C550.109 711.266 548.7 711.023 547.414 710.449C546.128 709.875 545.007 708.988 544.152 707.87C543.296 706.751 542.735 705.436 542.518 704.045C542.302 702.654 542.437 701.23 542.912 699.904L563.33 624.597C564.321 621.434 566.266 618.656 568.898 616.641C571.53 614.627 574.72 613.476 578.032 613.346H694.427C695.537 613.266 696.651 613.406 697.707 613.758C698.763 614.11 699.739 614.666 700.579 615.395C701.42 616.124 702.109 617.012 702.606 618.007C703.103 619.003 703.399 620.087 703.478 621.197C703.553 622.338 703.4 623.482 703.028 624.564Z" fill="#1349C5"/>
<mask id="mask2_1464_5935" style="mask-type:luminance" maskUnits="userSpaceOnUse" x="542" y="613" width="162" height="99">
<path d="M703.031 624.56L682.629 699.867C681.646 703.037 679.705 705.825 677.072 707.846C674.439 709.866 671.244 711.022 667.928 711.152H551.516C550.113 711.262 548.704 711.019 547.418 710.445C546.132 709.871 545.011 708.984 544.155 707.866C543.3 706.747 542.739 705.432 542.522 704.041C542.306 702.65 542.441 701.226 542.915 699.901L563.334 624.593C564.325 621.43 566.27 618.652 568.902 616.637C571.534 614.623 574.724 613.472 578.036 613.342H694.431C695.541 613.262 696.655 613.403 697.711 613.754C698.767 614.106 699.743 614.662 700.583 615.391C701.424 616.12 702.112 617.008 702.61 618.004C703.107 618.999 703.403 620.083 703.482 621.193C703.557 622.334 703.404 623.479 703.031 624.56Z" fill="white"/>
</mask>
<g mask="url(#mask2_1464_5935)">
<path opacity="0.2" d="M703.031 624.553L682.629 699.861C681.646 703.031 679.705 705.818 677.072 707.839C674.439 709.86 671.244 711.015 667.928 711.145H551.516C550.113 711.255 548.704 711.012 547.418 710.438C546.132 709.864 545.011 708.978 544.155 707.859C543.3 706.74 542.739 705.425 542.522 704.034C542.306 702.643 542.441 701.22 542.915 699.894L563.334 624.586C564.325 621.424 566.27 618.645 568.902 616.631C571.534 614.617 574.724 613.466 578.036 613.335H638.225C664.244 640.005 660.927 689.16 659.227 703.994C661.943 703.34 664.443 701.995 666.487 700.092C668.531 698.188 670.049 695.789 670.895 693.127L691.264 617.802C691.68 616.345 691.765 614.813 691.514 613.319H694.431C695.83 613.218 697.232 613.467 698.511 614.043C699.791 614.619 700.907 615.503 701.76 616.617C702.613 617.731 703.175 619.039 703.397 620.425C703.619 621.81 703.493 623.228 703.031 624.553Z" fill="black" fill-opacity="0.7"/>
</g>
<path d="M703.028 624.564L682.626 699.871C681.642 703.041 679.701 705.829 677.068 707.849C674.435 709.87 671.241 711.025 667.924 711.156H551.512C550.109 711.266 548.7 711.023 547.414 710.449C546.128 709.875 545.007 708.988 544.152 707.87C543.296 706.751 542.735 705.436 542.518 704.045C542.302 702.654 542.437 701.23 542.912 699.904L563.33 624.597C564.321 621.434 566.266 618.656 568.898 616.641C571.53 614.627 574.72 613.476 578.032 613.346H694.427C695.537 613.266 696.651 613.406 697.707 613.758C698.763 614.11 699.739 614.666 700.579 615.395C701.42 616.124 702.109 617.012 702.606 618.007C703.103 619.003 703.399 620.087 703.478 621.197C703.553 622.338 703.4 623.482 703.028 624.564Z" stroke="#263238" stroke-linecap="round" stroke-linejoin="round"/>
<path d="M634.59 787.34L672.66 927.754H682.695L644.641 787.34H634.59Z" fill="#757575" stroke="#263238" stroke-linecap="round" stroke-linejoin="round"/>
<path d="M644.675 771.16V784.894H494.793V771.16C494.793 768.481 495.857 765.911 497.751 764.017C499.646 762.123 502.215 761.059 504.894 761.059H634.557C635.885 761.054 637.202 761.312 638.43 761.818C639.659 762.324 640.775 763.068 641.715 764.006C642.655 764.945 643.401 766.06 643.909 767.288C644.417 768.515 644.677 769.831 644.675 771.16Z" fill="#1349C5"/>
<mask id="mask3_1464_5935" style="mask-type:luminance" maskUnits="userSpaceOnUse" x="494" y="761" width="151" height="24">
<path d="M644.671 771.152V784.887H494.789V771.152C494.789 768.473 495.853 765.904 497.748 764.009C499.642 762.115 502.211 761.051 504.89 761.051H634.553C635.882 761.046 637.198 761.305 638.426 761.81C639.655 762.316 640.771 763.06 641.711 763.999C642.651 764.937 643.397 766.052 643.905 767.28C644.413 768.507 644.673 769.823 644.671 771.152Z" fill="white"/>
</mask>
<g mask="url(#mask3_1464_5935)">
<path opacity="0.2" d="M644.321 768.568C639.47 774.269 630.769 780.069 615.801 784.953H494.789V771.152C494.789 768.473 495.853 765.904 497.748 764.009C499.642 762.115 502.211 761.051 504.89 761.051H634.553C636.782 761.053 638.947 761.791 640.714 763.15C642.48 764.51 643.748 766.414 644.321 768.568Z" fill="black" fill-opacity="0.7"/>
</g>
<path d="M644.675 771.16V784.894H494.793V771.16C494.793 768.481 495.857 765.911 497.751 764.017C499.646 762.123 502.215 761.059 504.894 761.059H634.557C635.885 761.054 637.202 761.312 638.43 761.818C639.659 762.324 640.775 763.068 641.715 764.006C642.655 764.945 643.401 766.06 643.909 767.288C644.417 768.515 644.677 769.831 644.675 771.16Z" stroke="#263238" stroke-linecap="round" stroke-linejoin="round"/>
<path d="M649.756 780.746H491.007C489.432 780.746 488.156 782.022 488.156 783.596V790.78C488.156 792.355 489.432 793.631 491.007 793.631H649.756C651.33 793.631 652.606 792.355 652.606 790.78V783.596C652.606 782.022 651.33 780.746 649.756 780.746Z" fill="#999999" stroke="#263238" stroke-linecap="round" stroke-linejoin="round"/>
<path d="M489.925 781.168C482.741 788.485 517.561 903.463 517.561 903.463C513.761 906.797 508.161 908.331 502.86 909.031C497.987 909.636 493.063 909.709 488.175 909.247C488.175 909.247 438.27 788.202 452.005 758.166C465.74 728.129 550.965 714.494 550.965 714.494L554.598 705.494L598.686 699.293L605.97 753.282C605.97 753.282 598.736 753.982 587.852 755.382C558.666 759.082 503.127 767.833 489.925 781.168Z" fill="#263238"/>
<mask id="mask4_1464_5935" style="mask-type:luminance" maskUnits="userSpaceOnUse" x="449" y="699" width="157" height="211">
<path d="M489.933 781.156C482.749 788.474 517.569 903.452 517.569 903.452C513.769 906.785 508.168 908.319 502.868 909.019C497.995 909.624 493.071 909.697 488.183 909.236C488.183 909.236 438.278 788.19 452.013 758.154C465.747 728.117 550.973 714.483 550.973 714.483L554.606 705.482L598.694 699.281L605.978 753.27C605.978 753.27 598.744 753.97 587.86 755.37C558.673 759.071 503.134 767.821 489.933 781.156Z" fill="white"/>
</mask>
<g mask="url(#mask4_1464_5935)">
<path opacity="0.3" d="M517.57 903.526C513.77 906.86 508.169 908.393 502.869 909.093C493.184 873.089 468.532 777.013 477.866 765.262C489.384 750.761 546.39 737.576 546.39 737.576C546.623 730.175 566.608 723.508 566.608 723.508L587.844 755.328C558.658 759.078 503.119 767.829 489.917 781.164C482.75 788.548 517.57 903.526 517.57 903.526Z" fill="black"/>
</g>
<path d="M489.925 781.168C482.741 788.485 517.561 903.463 517.561 903.463C513.761 906.797 508.161 908.331 502.86 909.031C497.987 909.636 493.063 909.709 488.175 909.247C488.175 909.247 438.27 788.202 452.005 758.166C465.74 728.129 550.965 714.494 550.965 714.494L554.598 705.494L598.686 699.293L605.97 753.282C605.97 753.282 598.736 753.982 587.852 755.382C558.666 759.082 503.127 767.833 489.925 781.168Z" stroke="#263238" stroke-linecap="round" stroke-linejoin="round"/>
<path d="M465.259 672.335C457.942 671.085 510.03 625.414 510.03 625.414L535.15 642.316C535.15 642.316 492.412 672.419 485.695 673.236C478.977 674.052 465.259 672.335 465.259 672.335Z" fill="white"/>
<mask id="mask5_1464_5935" style="mask-type:luminance" maskUnits="userSpaceOnUse" x="464" y="625" width="72" height="49">
<path d="M465.255 672.335C457.938 671.085 510.027 625.414 510.027 625.414L535.146 642.316C535.146 642.316 492.408 672.419 485.691 673.236C478.973 674.052 465.255 672.335 465.255 672.335Z" fill="white"/>
</mask>
<g mask="url(#mask5_1464_5935)">
<path opacity="0.2" d="M465.255 672.335C457.938 671.085 510.027 625.414 510.027 625.414L535.146 642.316C535.146 642.316 492.408 672.419 485.691 673.236C478.973 674.052 465.255 672.335 465.255 672.335Z" fill="black" fill-opacity="0.7"/>
</g>
<path d="M465.259 672.335C457.942 671.085 510.03 625.414 510.03 625.414L535.15 642.316C535.15 642.316 492.412 672.419 485.695 673.236C478.977 674.052 465.259 672.335 465.259 672.335Z" stroke="#263238" stroke-linecap="round" stroke-linejoin="round"/>
<path d="M474.406 653.129C474.406 653.129 485.324 655.846 488.674 658.129C492.025 660.413 491.058 668.664 491.058 668.664C491.058 668.664 476.506 664.563 474.406 653.129Z" fill="white" stroke="#263238" stroke-linecap="round" stroke-linejoin="round"/>
<path d="M467.441 632.21L487.743 671.147H490.144L470.858 630.293L467.441 632.21Z" fill="#263238"/>
<path d="M485.738 660.37C485.738 660.37 472.937 651.27 469.803 651.27C466.669 651.27 457.285 662.354 457.285 667.938C457.285 673.522 477.754 676.572 481.754 671.855C483.754 669.505 479.787 663.837 479.787 663.837C482.17 666.373 484.727 668.74 487.438 670.921C489.105 671.855 492.289 670.638 492.289 670.638C492.289 670.638 488.022 663.804 485.738 660.37Z" fill="white" stroke="#263238" stroke-linecap="round" stroke-linejoin="round"/>
<path d="M479.79 673.131C476.838 669.384 473.215 666.218 469.105 663.797" stroke="#263238" stroke-linecap="round" stroke-linejoin="round"/>
<path d="M479.792 663.799C479.792 663.799 475.359 659.932 472.375 659.082" stroke="#263238" stroke-linecap="round" stroke-linejoin="round"/>
<path d="M465.84 668.715C468.939 670.303 471.93 672.096 474.791 674.082" stroke="#263238" stroke-linecap="round" stroke-linejoin="round"/>
<path d="M526.345 605.441C519.795 610.009 490.375 640.262 490.375 640.262C490.375 640.262 504.16 655.946 516.244 658.213L548.998 642.312L526.345 605.441Z" fill="#1349C5" stroke="#263238" stroke-linecap="round" stroke-linejoin="round"/>
<path opacity="0.4" d="M526.345 605.441C519.795 610.009 490.375 640.262 490.375 640.262C490.375 640.262 504.16 655.946 516.244 658.213L548.998 642.312L526.345 605.441Z" fill="white" stroke="#263238" stroke-linecap="round" stroke-linejoin="round"/>
<path d="M510.528 891.32L524.413 927.841C524.413 927.841 526.713 937.225 484.842 934.258L461.773 932.291L510.528 891.32Z" fill="#1349C5"/>
<mask id="mask6_1464_5935" style="mask-type:luminance" maskUnits="userSpaceOnUse" x="461" y="891" width="64" height="44">
<path d="M510.528 891.316L524.413 927.837C524.413 927.837 526.713 937.221 484.842 934.254L461.773 932.287L510.528 891.316Z" fill="white"/>
</mask>
<g mask="url(#mask6_1464_5935)">
<path opacity="0.3" d="M510.528 891.316L524.413 927.837C524.413 927.837 526.713 937.221 484.842 934.254L461.773 932.287L510.528 891.316Z" fill="black"/>
</g>
<path d="M510.528 891.32L524.413 927.841C524.413 927.841 526.713 937.225 484.842 934.258L461.773 932.291L510.528 891.32Z" stroke="#263238" stroke-linecap="round" stroke-linejoin="round"/>
<path d="M505.261 908.792C505.261 908.792 508.228 922.977 505.261 933.528C505.261 933.528 461.073 940.445 451.189 937.811C441.305 935.178 435.304 930.244 435.004 927.81C435.004 927.81 435.354 921.043 445.255 919.06C455.156 917.076 474.841 915.726 482.625 904.558C490.409 893.39 505.261 908.792 505.261 908.792Z" fill="#1349C5" stroke="#263238" stroke-linecap="round" stroke-linejoin="round"/>
<path d="M563.57 704.021C577.688 683.885 642.595 708.121 642.595 708.121C642.595 708.121 648.779 756.592 622.926 769.527C597.074 782.462 559.803 781.762 549.736 792.246L508.765 913.225C508.765 913.225 494.047 919.375 472.645 909.691C472.645 909.691 498.664 818.332 506.298 785.895C513.849 753.792 562.737 732.007 562.737 732.007C560.217 729.03 558.308 725.587 557.12 721.872" fill="#263238"/>
<path d="M563.57 704.021C577.688 683.885 642.595 708.121 642.595 708.121C642.595 708.121 648.779 756.592 622.926 769.527C597.074 782.462 559.803 781.762 549.736 792.246L508.765 913.225C508.765 913.225 494.047 919.375 472.645 909.691C472.645 909.691 498.664 818.332 506.298 785.895C513.849 753.792 562.737 732.007 562.737 732.007C560.217 729.03 558.308 725.587 557.12 721.872" stroke="#263238" stroke-linecap="round" stroke-linejoin="round"/>
<path d="M629.279 750.359C627.208 752.195 625.031 753.909 622.762 755.493" stroke="white" stroke-linecap="round" stroke-linejoin="round"/>
<path d="M634.589 709.305C639.889 720.806 640.306 735.407 632.922 746.058" stroke="white" stroke-linecap="round" stroke-linejoin="round"/>
<path d="M619.805 711.152C619.805 711.152 618.454 720.02 622.405 723.537C626.355 727.054 638.473 728.837 638.473 728.837" stroke="white" stroke-linecap="round" stroke-linejoin="round"/>
<path d="M566.598 711.551C566.598 711.551 567.148 720.385 563.564 719.968C559.98 719.552 559.797 723.502 559.797 723.502" stroke="white" stroke-linecap="round" stroke-linejoin="round"/>
<path d="M527.21 612.241C526.664 610.015 526.373 607.733 526.344 605.441C526.344 605.441 546.346 588.572 572.098 588.672C602.768 588.772 621.52 598.423 629.021 611.825C640.922 633.027 642.589 708.118 642.589 708.118C642.589 708.118 565.631 719.985 554.597 705.434C552.68 702.9 554.147 685.015 554.147 685.015C554.147 685.015 545.529 662.413 543.712 644.878C541.18 641.388 538.827 637.772 536.661 634.044C533.921 629.454 531.547 624.655 529.561 619.692" fill="#1349C5"/>
<path d="M527.21 612.241C526.664 610.015 526.373 607.733 526.344 605.441C526.344 605.441 546.346 588.572 572.098 588.672C602.768 588.772 621.52 598.423 629.021 611.825C640.922 633.027 642.589 708.118 642.589 708.118C642.589 708.118 565.631 719.985 554.597 705.434C552.68 702.9 554.147 685.015 554.147 685.015C554.147 685.015 545.529 662.413 543.712 644.878C541.18 641.388 538.827 637.772 536.661 634.044C533.921 629.454 531.547 624.655 529.561 619.692" stroke="#263238" stroke-linecap="round" stroke-linejoin="round"/>
<g opacity="0.6">
<path d="M527.21 612.241C526.664 610.015 526.373 607.733 526.344 605.441C526.344 605.441 546.346 588.572 572.098 588.672C602.768 588.772 621.52 598.423 629.021 611.825C640.922 633.027 642.589 708.118 642.589 708.118C642.589 708.118 565.631 719.985 554.597 705.434C552.68 702.9 554.147 685.015 554.147 685.015C554.147 685.015 545.529 662.413 543.712 644.878C541.18 641.388 538.827 637.772 536.661 634.044C533.921 629.454 531.547 624.655 529.561 619.692" fill="white"/>
<path d="M527.21 612.241C526.664 610.015 526.373 607.733 526.344 605.441C526.344 605.441 546.346 588.572 572.098 588.672C602.768 588.772 621.52 598.423 629.021 611.825C640.922 633.027 642.589 708.118 642.589 708.118C642.589 708.118 565.631 719.985 554.597 705.434C552.68 702.9 554.147 685.015 554.147 685.015C554.147 685.015 545.529 662.413 543.712 644.878C541.18 641.388 538.827 637.772 536.661 634.044C533.921 629.454 531.547 624.655 529.561 619.692" stroke="#263238" stroke-linecap="round" stroke-linejoin="round"/>
</g>
<path d="M556.688 630.293C556.688 630.293 568.439 675.881 566.689 685.915C566.271 689.378 566.849 692.887 568.355 696.033C566.82 697.648 565.832 699.706 565.533 701.914C565.234 704.122 565.638 706.369 566.689 708.334" stroke="#263238" stroke-linecap="round" stroke-linejoin="round"/>
<path d="M587.849 668.015C585.75 667.935 583.711 667.29 581.949 666.148L578.465 650.88C585.377 651.509 592.344 651.019 599.1 649.43L602.834 666.098C600.735 666.683 598.603 667.145 596.45 667.481" stroke="#263238" stroke-linecap="round" stroke-linejoin="round"/>
<path d="M548.33 636.231C548.33 636.231 538.329 593.626 563.565 588.676C588.801 583.725 593.985 595.51 592.501 603.494C590.518 614.145 569.599 640.264 569.599 640.264L556.681 630.263L548.33 636.231Z" fill="#1349C5" stroke="#263238" stroke-linecap="round" stroke-linejoin="round"/>
<path opacity="0.4" d="M548.33 636.231C548.33 636.231 538.329 593.626 563.565 588.676C588.801 583.725 593.985 595.51 592.501 603.494C590.518 614.145 569.599 640.264 569.599 640.264L556.681 630.263L548.33 636.231Z" fill="white" stroke="#263238" stroke-linecap="round" stroke-linejoin="round"/>
<path d="M515.23 767.827C515.23 767.827 531.532 749.008 568.336 734.79C568.336 734.79 558.802 731.873 556.668 727.906" stroke="white" stroke-linecap="round" stroke-linejoin="round"/>
<path d="M496.054 825.414L481.152 879.52" stroke="white" stroke-linecap="round" stroke-linejoin="round"/>
<path d="M611.207 669.482C611.207 669.482 617.874 680.733 645.327 679.699C640.218 674.229 633.755 670.204 626.592 668.031C615.374 665.031 611.207 669.482 611.207 669.482Z" fill="#1349C5" stroke="#263238" stroke-linecap="round" stroke-linejoin="round"/>
<path d="M504.691 673.995C504.691 673.995 511.059 664.127 516.893 662.144C522.727 660.16 539.862 659.994 542.512 659.927C545.162 659.86 592.25 671.828 614.352 679.196L612.419 642.309L642.122 644.659C642.122 644.659 640.922 689.663 636.305 701.581C631.687 713.499 625.07 710.599 613.786 705.732C569.398 686.613 543.395 673.295 540.978 674.062C538.561 674.828 504.691 673.995 504.691 673.995Z" fill="white" stroke="#263238" stroke-linecap="round" stroke-linejoin="round"/>
<path d="M605.004 620.873C604.228 623.931 603.979 627.099 604.27 630.241C605.587 641.776 611.204 669.478 611.204 669.478C611.204 669.478 638.89 673.429 645.324 679.696C645.324 679.696 649.891 643.026 640.591 624.407C631.29 605.789 621.672 603.738 621.672 603.738C615.588 602.238 610.004 607.905 606.92 615.19" fill="#1349C5"/>
<path d="M605.004 620.873C604.228 623.931 603.979 627.099 604.27 630.241C605.587 641.776 611.204 669.478 611.204 669.478C611.204 669.478 638.89 673.429 645.324 679.696C645.324 679.696 649.891 643.026 640.591 624.407C631.29 605.789 621.672 603.738 621.672 603.738C615.588 602.238 610.004 607.905 606.92 615.19" stroke="#263238" stroke-linecap="round" stroke-linejoin="round"/>
<g opacity="0.4">
<path d="M605.011 620.873C604.235 623.931 603.987 627.099 604.278 630.241C605.595 641.776 611.212 669.478 611.212 669.478C611.212 669.478 638.898 673.429 645.332 679.696C645.332 679.696 649.899 643.026 640.598 624.407C631.297 605.789 621.68 603.738 621.68 603.738C615.596 602.238 610.012 607.905 606.928 615.19" fill="white"/>
<path d="M605.011 620.873C604.235 623.931 603.987 627.099 604.278 630.241C605.595 641.776 611.212 669.478 611.212 669.478C611.212 669.478 638.898 673.429 645.332 679.696C645.332 679.696 649.899 643.026 640.598 624.407C631.297 605.789 621.68 603.738 621.68 603.738C615.596 602.238 610.012 607.905 606.928 615.19" stroke="#263238" stroke-linecap="round" stroke-linejoin="round"/>
</g>
<path d="M523.664 635.148C527.809 638.54 532.644 640.986 537.832 642.316" stroke="#263238" stroke-linecap="round" stroke-linejoin="round"/>
<path d="M611.207 635.148C611.207 635.148 621.208 654.05 633.843 658.217" stroke="#263238" stroke-linecap="round" stroke-linejoin="round"/>
<path d="M546.402 780.746C546.402 780.746 548.253 782.146 549.003 787.197" stroke="white" stroke-linecap="round" stroke-linejoin="round"/>
<path d="M539.547 787.195C541.157 787.37 542.714 787.878 544.117 788.688C545.52 789.497 546.74 790.589 547.698 791.896" stroke="white" stroke-linecap="round" stroke-linejoin="round"/>
<path d="M484.402 767.824C484.402 767.824 489.736 770.524 488.586 778.175" stroke="white" stroke-linecap="round" stroke-linejoin="round"/>
<path d="M478.789 774.328C478.789 774.328 486.073 778.645 486.59 782.512" stroke="white" stroke-linecap="round" stroke-linejoin="round"/>
<path d="M543.102 725.148C543.102 725.148 559.112 729.79 562.699 725.148" stroke="white" stroke-linecap="round" stroke-linejoin="round"/>
<path d="M556.686 628.459C555.286 624.489 554.718 620.273 555.019 616.074C555.086 614.65 555.236 613.23 555.469 611.824L552.652 607.356L549.035 601.606L553.219 584.938C553.219 584.938 579.888 590.071 581.888 597.505C583.889 604.94 556.686 628.459 556.686 628.459Z" fill="white"/>
<mask id="mask7_1464_5935" style="mask-type:luminance" maskUnits="userSpaceOnUse" x="549" y="584" width="33" height="45">
<path d="M556.682 628.455C555.282 624.485 554.715 620.269 555.015 616.07C555.082 614.646 555.232 613.226 555.465 611.82L552.648 607.353L549.031 601.602L553.215 584.934C553.215 584.934 579.884 590.067 581.885 597.502C583.885 604.936 556.682 628.455 556.682 628.455Z" fill="white"/>
</mask>
<g mask="url(#mask7_1464_5935)">
<path opacity="0.2" d="M554.976 616.139C555.043 614.715 555.193 613.296 555.426 611.889L552.609 607.422C557.687 606.636 562.309 604.044 565.627 600.121C565.767 603.573 564.813 606.981 562.9 609.858C560.987 612.735 558.214 614.933 554.976 616.139Z" fill="black" fill-opacity="0.7"/>
</g>
<path d="M556.686 628.459C555.286 624.489 554.718 620.273 555.019 616.074C555.086 614.65 555.236 613.23 555.469 611.824L552.652 607.356L549.035 601.606L553.219 584.938C553.219 584.938 579.888 590.071 581.888 597.505C583.889 604.94 556.686 628.459 556.686 628.459Z" stroke="#263238" stroke-linecap="round" stroke-linejoin="round"/>
<path d="M573.417 586.347C581.752 564.678 576.218 527.791 536.214 534.858C512.745 539.026 509.911 567.395 517.745 579.996C525.579 592.598 517.262 592.998 529.046 602.332C533.83 606.116 537.68 612.533 543.381 612.95C550.165 613.416 558.849 606.999 565.333 600.065" fill="white"/>
<path d="M573.417 586.347C581.752 564.678 576.218 527.791 536.214 534.858C512.745 539.026 509.911 567.395 517.745 579.996C525.579 592.598 517.262 592.998 529.046 602.332C533.83 606.116 537.68 612.533 543.381 612.95C550.165 613.416 558.849 606.999 565.333 600.065" stroke="#263238" stroke-linecap="round" stroke-linejoin="round"/>
<path d="M533.992 579.988C533.992 579.988 539.893 574.621 546.91 576.838" stroke="#263238" stroke-linecap="round" stroke-linejoin="round"/>
<path d="M522.944 579.991C522.152 578.599 521.05 577.409 519.723 576.512C518.396 575.616 516.88 575.038 515.293 574.824" stroke="#263238" stroke-linecap="round" stroke-linejoin="round"/>
<path d="M526.846 587.812C526.846 587.812 525.996 592.13 524.879 596.497C523.762 600.864 531.88 598.48 531.546 597.814" fill="white"/>
<path d="M526.846 587.812C526.846 587.812 525.996 592.13 524.879 596.497C523.762 600.864 531.88 598.48 531.546 597.814" stroke="#263238" stroke-linecap="round" stroke-linejoin="round"/>
<path d="M535.73 603.258C539.172 602.273 542.235 600.268 544.515 597.508" stroke="#263238" stroke-linecap="round" stroke-linejoin="round"/>
<path d="M542.213 585.473C542.332 585.683 542.408 585.915 542.437 586.154C542.466 586.394 542.447 586.636 542.382 586.869C542.317 587.101 542.207 587.318 542.058 587.508C541.909 587.697 541.724 587.856 541.513 587.974C541.086 588.207 540.584 588.263 540.116 588.129C539.648 587.994 539.252 587.681 539.013 587.257C538.86 586.999 538.78 586.706 538.78 586.407C538.661 586.197 538.585 585.965 538.556 585.726C538.527 585.486 538.546 585.244 538.611 585.011C538.676 584.779 538.786 584.562 538.935 584.372C539.084 584.183 539.269 584.024 539.48 583.906C539.907 583.673 540.409 583.617 540.877 583.751C541.345 583.885 541.741 584.199 541.98 584.623C542.133 584.88 542.213 585.174 542.213 585.473Z" fill="#263238"/>
<path d="M524.409 585.108C524.742 586.308 524.509 587.441 523.876 587.608C523.242 587.775 522.459 586.941 522.209 585.725C521.959 584.508 522.126 583.391 522.759 583.224C523.392 583.058 524.042 583.891 524.409 585.108Z" fill="#263238"/>
<path d="M548.747 557.672C548.747 557.672 542.546 573.89 527.211 573.523C527.211 573.523 532.529 569.473 533.995 565.606C533.995 565.606 522.194 577.274 510.41 571.34C498.625 565.406 504.409 537.803 522.494 526.902C540.579 516.001 559.081 518.918 565.348 529.336C565.348 529.336 578.016 528.169 583.6 546.787C588.601 563.456 580.6 588.725 572.783 589.008C560.665 589.458 558.231 576.307 558.231 576.307C553.228 571.219 549.916 564.711 548.747 557.672Z" fill="#263238" stroke="#263238" stroke-linecap="round" stroke-linejoin="round"/>
<path d="M562.034 586.431C562.034 586.431 561.65 571.129 570.368 572.979C579.085 574.83 572.768 592.515 566.217 592.331" fill="white"/>
<path d="M562.034 586.431C562.034 586.431 561.65 571.129 570.368 572.979C579.085 574.83 572.768 592.515 566.217 592.331" stroke="#263238" stroke-linecap="round" stroke-linejoin="round"/>
<path d="M535.114 672.336H400.717C399.216 672.336 398 673.552 398 675.053V679.737C398 681.237 399.216 682.454 400.717 682.454H535.114C536.614 682.454 537.831 681.237 537.831 679.737V675.053C537.831 673.552 536.614 672.336 535.114 672.336Z" fill="#1349C5" stroke="#263238" stroke-linecap="round" stroke-linejoin="round"/>
<path d="M627.136 832.926C612.378 842.567 599.995 855.424 590.914 870.533C575.854 895.661 563.923 931.011 582.453 935.49L600.077 934.823L633.991 923.182L630.436 916.345C630.436 916.345 600.743 932.071 595.666 932.071C590.589 932.071 583.974 933.336 581.188 931.302C578.401 929.268 590.948 883.575 617.803 868.345C644.658 853.114 627.136 832.926 627.136 832.926Z" fill="#1349C5"/>
<mask id="mask8_1464_5935" style="mask-type:luminance" maskUnits="userSpaceOnUse" x="573" y="832" width="61" height="104">
<path d="M627.129 832.922C612.371 842.563 599.987 855.42 590.906 870.529C575.847 895.657 563.915 931.007 582.445 935.486L600.069 934.819L633.983 923.178L630.428 916.341C630.428 916.341 600.735 932.067 595.658 932.067C590.582 932.067 583.966 933.332 581.18 931.298C578.394 929.264 590.941 883.571 617.795 868.341C644.65 853.11 627.129 832.922 627.129 832.922Z" fill="white"/>
</mask>
<g mask="url(#mask8_1464_5935)">
<path opacity="0.5" d="M627.129 832.922C612.371 842.563 599.987 855.42 590.906 870.529C575.847 895.657 563.915 931.007 582.445 935.486L600.069 934.819L633.983 923.178L630.428 916.341C630.428 916.341 600.735 932.067 595.658 932.067C590.582 932.067 583.966 933.332 581.18 931.298C578.394 929.264 590.941 883.571 617.795 868.341C644.65 853.11 627.129 832.922 627.129 832.922Z" fill="black" fill-opacity="0.7"/>
</g>
<path d="M627.136 832.926C612.378 842.567 599.995 855.424 590.914 870.533C575.854 895.661 563.923 931.011 582.453 935.49L600.077 934.823L633.991 923.182L630.436 916.345C630.436 916.345 600.743 932.071 595.666 932.071C590.589 932.071 583.974 933.336 581.188 931.302C578.401 929.268 590.948 883.575 617.803 868.345C644.658 853.114 627.136 832.926 627.136 832.926Z" stroke="#263238" stroke-linecap="round" stroke-linejoin="round"/>
<path d="M646.434 816.443C646.434 816.443 646.434 809.075 657.596 808.067C668.758 807.058 670.348 817.81 670.348 817.81H666.502C666.502 817.81 666.587 811.366 658.382 810.87C650.177 810.374 650.485 817.81 650.485 817.81L646.434 816.443Z" fill="#1349C5" stroke="#263238" stroke-linecap="round" stroke-linejoin="round"/>
<path d="M629.92 935.488C606.313 935.488 610.792 829.625 613.51 824.377C616.228 819.129 684.724 816.514 691.476 818.736C698.228 820.958 725.305 926.428 710.365 934.856L629.92 935.488Z" fill="#1349C5"/>
<mask id="mask9_1464_5935" style="mask-type:luminance" maskUnits="userSpaceOnUse" x="611" y="817" width="104" height="119">
<path d="M629.92 935.484C606.313 935.484 610.792 829.621 613.51 824.373C616.228 819.125 684.724 816.51 691.476 818.732C698.228 820.954 725.305 926.424 710.365 934.852L629.92 935.484Z" fill="white"/>
</mask>
<g mask="url(#mask9_1464_5935)">
<path opacity="0.2" d="M629.92 935.484C606.313 935.484 610.792 829.621 613.51 824.373C616.228 819.125 684.724 816.51 691.476 818.732C698.228 820.954 725.305 926.424 710.365 934.852L629.92 935.484Z" fill="black" fill-opacity="0.7"/>
</g>
<path d="M629.92 935.488C606.313 935.488 610.792 829.625 613.51 824.377C616.228 819.129 684.724 816.514 691.476 818.736C698.228 820.958 725.305 926.428 710.365 934.856L629.92 935.488Z" stroke="#263238" stroke-linecap="round" stroke-linejoin="round"/>
<path d="M613.504 824.249C622.051 826.079 626.974 860.728 638.478 869.549C649.983 878.369 704.222 876.472 710.359 869.549C716.495 862.626 704.495 823.754 695.777 817.805C687.059 811.856 680.854 817.634 656.324 814.916C619.965 810.865 613.504 824.249 613.504 824.249Z" fill="#1349C5" stroke="#263238" stroke-linecap="round" stroke-linejoin="round"/>
<path d="M675.768 844.174L685.819 852.379C685.957 852.495 686.07 852.638 686.152 852.798C686.234 852.958 686.283 853.133 686.297 853.313C686.312 853.492 686.29 853.673 686.235 853.844C686.179 854.015 686.09 854.174 685.973 854.311L678.144 862.755C677.894 863.003 677.556 863.143 677.204 863.143C676.852 863.143 676.514 863.003 676.264 862.755L666.264 853.439C666.019 853.187 665.883 852.85 665.883 852.499C665.883 852.148 666.019 851.81 666.264 851.558L674.007 844.362C674.227 844.12 674.528 843.968 674.852 843.933C675.177 843.899 675.502 843.984 675.768 844.174Z" fill="#1349C5"/>
<mask id="mask10_1464_5935" style="mask-type:luminance" maskUnits="userSpaceOnUse" x="665" y="843" width="22" height="21">
<path d="M675.768 844.162L685.819 852.367C685.957 852.484 686.07 852.626 686.152 852.786C686.234 852.947 686.283 853.122 686.297 853.301C686.312 853.481 686.29 853.661 686.235 853.832C686.179 854.003 686.09 854.162 685.973 854.299L678.144 862.743C677.894 862.992 677.556 863.131 677.204 863.131C676.852 863.131 676.514 862.992 676.264 862.743L666.264 853.427C666.019 853.175 665.883 852.838 665.883 852.487C665.883 852.136 666.019 851.799 666.264 851.547L674.007 844.35C674.227 844.109 674.528 843.956 674.852 843.922C675.177 843.887 675.502 843.972 675.768 844.162Z" fill="white"/>
</mask>
<g mask="url(#mask10_1464_5935)">
<path opacity="0.2" d="M675.768 844.162L685.819 852.367C685.957 852.484 686.07 852.626 686.152 852.786C686.234 852.947 686.283 853.122 686.297 853.301C686.312 853.481 686.29 853.661 686.235 853.832C686.179 854.003 686.09 854.162 685.973 854.299L678.144 862.743C677.894 862.992 677.556 863.131 677.204 863.131C676.852 863.131 676.514 862.992 676.264 862.743L666.264 853.427C666.019 853.175 665.883 852.838 665.883 852.487C665.883 852.136 666.019 851.799 666.264 851.547L674.007 844.35C674.227 844.109 674.528 843.956 674.852 843.922C675.177 843.887 675.502 843.972 675.768 844.162Z" fill="black" fill-opacity="0.7"/>
</g>
<path d="M675.768 844.174L685.819 852.379C685.957 852.495 686.07 852.638 686.152 852.798C686.234 852.958 686.283 853.133 686.297 853.313C686.312 853.492 686.29 853.673 686.235 853.844C686.179 854.015 686.09 854.174 685.973 854.311L678.144 862.755C677.894 863.003 677.556 863.143 677.204 863.143C676.852 863.143 676.514 863.003 676.264 862.755L666.264 853.439C666.019 853.187 665.883 852.85 665.883 852.499C665.883 852.148 666.019 851.81 666.264 851.558L674.007 844.362C674.227 844.12 674.528 843.968 674.852 843.933C675.177 843.899 675.502 843.984 675.768 844.174Z" stroke="#263238" stroke-linecap="round" stroke-linejoin="round"/>
<path d="M642.621 887.265C642.621 887.265 688.057 891.008 710.365 885.23C713.349 887.58 715.569 890.763 716.741 894.376C718.775 900.461 723.014 921.282 710.365 926.615C697.715 931.948 652.245 930.923 646.177 924.906C640.108 918.889 642.621 887.265 642.621 887.265Z" fill="#1349C5"/>
<mask id="mask11_1464_5935" style="mask-type:luminance" maskUnits="userSpaceOnUse" x="642" y="885" width="78" height="46">
<path d="M642.617 887.261C642.617 887.261 688.053 891.004 710.361 885.227C713.346 887.576 715.565 890.759 716.737 894.372C718.771 900.457 723.01 921.278 710.361 926.611C697.711 931.945 652.241 930.919 646.173 924.902C640.104 918.885 642.617 887.261 642.617 887.261Z" fill="white"/>
</mask>
<g mask="url(#mask11_1464_5935)">
<path opacity="0.4" d="M642.617 887.261C642.617 887.261 688.053 891.004 710.361 885.227C713.346 887.576 715.565 890.759 716.737 894.372C718.771 900.457 723.01 921.278 710.361 926.611C697.711 931.945 652.241 930.919 646.173 924.902C640.104 918.885 642.617 887.261 642.617 887.261Z" fill="black" fill-opacity="0.7"/>
</g>
<path d="M642.621 887.265C642.621 887.265 688.057 891.008 710.365 885.23C713.349 887.58 715.569 890.763 716.741 894.376C718.775 900.461 723.014 921.282 710.365 926.615C697.715 931.948 652.245 930.923 646.177 924.906C640.108 918.889 642.621 887.265 642.621 887.265Z" stroke="#263238" stroke-linecap="round" stroke-linejoin="round"/>
<path d="M642.625 887.265C642.625 887.265 647.958 901.641 650.745 903.846C653.531 906.051 712.557 906.051 719.121 900.718C725.685 895.384 716.693 885.743 710.386 885.23C710.369 885.23 669.018 890.051 642.625 887.265Z" fill="#1349C5" stroke="#263238" stroke-linecap="round" stroke-linejoin="round"/>
<path d="M623.582 884.207C623.582 884.207 625.104 914.412 628.146 921.267C625.888 922.446 623.378 923.061 620.83 923.061C618.282 923.061 615.772 922.446 613.514 921.267C605.821 917.198 607.086 891.181 608.608 891.25C610.129 891.318 623.582 884.207 623.582 884.207Z" fill="#1349C5"/>
<mask id="mask12_1464_5935" style="mask-type:luminance" maskUnits="userSpaceOnUse" x="607" y="884" width="22" height="40">
<path d="M623.582 884.195C623.582 884.195 625.104 914.4 628.146 921.255C625.888 922.434 623.378 923.05 620.83 923.05C618.282 923.05 615.772 922.434 613.514 921.255C605.821 917.187 607.086 891.17 608.608 891.238C610.129 891.306 623.582 884.195 623.582 884.195Z" fill="white"/>
</mask>
<g mask="url(#mask12_1464_5935)">
<path opacity="0.4" d="M623.582 884.195C623.582 884.195 625.104 914.4 628.146 921.255C625.888 922.434 623.378 923.05 620.83 923.05C618.282 923.05 615.772 922.434 613.514 921.255C605.821 917.187 607.086 891.17 608.608 891.238C610.129 891.306 623.582 884.195 623.582 884.195Z" fill="black" fill-opacity="0.7"/>
</g>
<path d="M623.582 884.207C623.582 884.207 625.104 914.412 628.146 921.267C625.888 922.446 623.378 923.061 620.83 923.061C618.282 923.061 615.772 922.446 613.514 921.267C605.821 917.198 607.086 891.181 608.608 891.25C610.129 891.318 623.582 884.207 623.582 884.207Z" stroke="#263238" stroke-linecap="round" stroke-linejoin="round"/>
<path d="M623.575 884.207L612.139 886.498C612.139 886.498 601.234 894.874 606.054 897.66C610.875 900.446 623.302 893.609 623.575 884.207Z" fill="#1349C5" stroke="#263238" stroke-linecap="round" stroke-linejoin="round"/>
<path d="M611 99.9988C605.983 100.051 601.069 98.4733 596.91 95.4762C592.751 92.479 589.542 88.2034 587.71 83.2156C585.878 78.2278 585.508 72.7633 586.649 67.5459C587.791 62.3286 590.39 57.6047 594.102 54" stroke="#263238" stroke-linecap="round" stroke-linejoin="round"/>
<path d="M636 83C634.734 86.6934 632.636 90.0533 629.864 92.8254C627.092 95.5975 623.719 97.709 620 99" stroke="#263238" stroke-linecap="round" stroke-linejoin="round"/>
<path d="M603 49.5282C609.473 47.1558 616.587 47.5583 622.775 50.6473C628.964 53.7363 633.721 59.2587 636 66" stroke="#263238" stroke-linecap="round" stroke-linejoin="round"/>
<path d="M624.628 56C627.388 57.7746 629.721 60.0856 631.474 62.7808C633.227 65.4759 634.359 68.4939 634.796 71.6358C635.233 74.7776 634.965 77.9719 634.01 81.008C633.055 84.0441 631.433 86.8531 629.254 89.2496C627.074 91.6462 624.384 93.5759 621.363 94.9115C618.342 96.2472 615.058 96.9584 611.726 96.9982C608.395 97.0381 605.093 96.4057 602.038 95.1428C598.982 93.8799 596.243 92.0151 594 89.6715" stroke="#263238" stroke-linecap="round" stroke-linejoin="round"/>
<path d="M589.356 81C587.915 77.1453 587.616 72.9947 588.491 68.9925C589.367 64.9904 591.384 61.2873 594.326 58.2797C597.269 55.2722 601.026 53.0733 605.197 51.9185C609.367 50.7638 613.792 50.6965 618 51.7241" stroke="#263238" stroke-linecap="round" stroke-linejoin="round"/>
<path d="M603 61L611 74.287L603.71 84" stroke="#263238" stroke-linecap="round" stroke-linejoin="round"/>
<path d="M395 169L409 164" stroke="#263238" stroke-linecap="round" stroke-linejoin="round"/>
<path d="M420.757 157C420.757 157 412.304 173.831 425 181" stroke="#263238" stroke-linecap="round" stroke-linejoin="round"/>
<path d="M433 152C433 152 446.796 159.578 438.154 176" stroke="#263238" stroke-linecap="round" stroke-linejoin="round"/>
<path d="M423 162L433 170" stroke="#263238" stroke-linecap="round" stroke-linejoin="round"/>
<path d="M431 159L423 172" stroke="#263238" stroke-linecap="round" stroke-linejoin="round"/>
<path d="M473 249.259L481.408 250.661L481.524 270L499.941 236L529 240.831" stroke="#263238" stroke-linecap="round" stroke-linejoin="round"/>
<path d="M351.502 240L348 252C348 252 349.751 245.898 352.831 245.898C356.607 245.898 355.235 252 350.405 250.739" stroke="#263238" stroke-linecap="round" stroke-linejoin="round"/>
</svg>
