<svg width="32" height="32" viewBox="0 0 32 32" fill="none" xmlns="http://www.w3.org/2000/svg">
<path fill-rule="evenodd" clip-rule="evenodd" d="M10.2324 9.90039C10.2324 9.1635 10.3776 8.43383 10.6596 7.75303C10.9416 7.07223 11.3549 6.45364 11.8759 5.93258C12.397 5.41152 13.0156 4.99819 13.6964 4.7162C14.3772 4.4342 15.1069 4.28906 15.8438 4.28906C16.5806 4.28906 17.3103 4.4342 17.9911 4.7162C18.6719 4.99819 19.2905 5.41152 19.8116 5.93258C20.3326 6.45364 20.7459 7.07223 21.0279 7.75303C21.3099 8.43383 21.4551 9.1635 21.4551 9.90039C21.4551 11.3886 20.8639 12.8159 19.8116 13.8682C18.7592 14.9205 17.332 15.5117 15.8438 15.5117C14.3555 15.5117 12.9283 14.9205 11.8759 13.8682C10.8236 12.8159 10.2324 11.3886 10.2324 9.90039ZM15.8438 6.26953C14.8808 6.26953 13.9573 6.65207 13.2763 7.33299C12.5954 8.0139 12.2129 8.93743 12.2129 9.90039C12.2129 10.8634 12.5954 11.7869 13.2763 12.4678C13.9573 13.1487 14.8808 13.5312 15.8438 13.5312C16.8067 13.5312 17.7302 13.1487 18.4112 12.4678C19.0921 11.7869 19.4746 10.8634 19.4746 9.90039C19.4746 8.93743 19.0921 8.0139 18.4112 7.33299C17.7302 6.65207 16.8067 6.26953 15.8438 6.26953ZM10.5625 19.4727C9.77462 19.4727 9.01901 19.7856 8.4619 20.3428C7.90478 20.8999 7.5918 21.6555 7.5918 22.4434V24.0119C7.5918 24.0357 7.60896 24.0568 7.63273 24.0607C13.0711 24.948 18.6177 24.948 24.0548 24.0607C24.066 24.0582 24.076 24.052 24.0834 24.0432C24.0908 24.0344 24.0951 24.0234 24.0957 24.0119V22.4434C24.0957 21.6555 23.7827 20.8999 23.2256 20.3428C22.6685 19.7856 21.9129 19.4727 21.125 19.4727H20.6761C20.6408 19.4733 20.6057 19.4786 20.5718 19.4885L19.4297 19.8621C17.0996 20.623 14.5879 20.623 12.2578 19.8621L11.1144 19.4885C11.0813 19.4788 11.0472 19.4735 11.0127 19.4727H10.5625ZM5.61133 22.4434C5.61133 21.1302 6.13297 19.8709 7.06149 18.9424C7.99002 18.0138 9.24937 17.4922 10.5625 17.4922H11.0114C11.2579 17.4931 11.4973 17.5309 11.7297 17.6057L12.873 17.9794C14.8034 18.6096 16.8841 18.6096 18.8145 17.9794L19.9578 17.6057C20.1889 17.5305 20.4318 17.4922 20.6748 17.4922H21.125C22.4381 17.4922 23.6975 18.0138 24.626 18.9424C25.5545 19.8709 26.0762 21.1302 26.0762 22.4434V24.0119C26.0762 25.0074 25.3553 25.855 24.373 26.0148C18.7242 26.9368 12.9633 26.9368 7.31453 26.0148C6.83946 25.9366 6.40754 25.6924 6.09565 25.3257C5.78376 24.9589 5.61213 24.4933 5.61133 24.0119V22.4434Z" fill="#1349C5"/>
</svg>
