<svg width="20" height="20" viewBox="0 0 20 20" fill="none" xmlns="http://www.w3.org/2000/svg">
<path fill-rule="evenodd" clip-rule="evenodd" d="M10.0007 2.20801C5.70423 2.20801 2.20898 5.70326 2.20898 9.99967C2.20898 14.2961 5.70423 17.7913 10.0007 17.7913C14.2971 17.7913 17.7923 14.2961 17.7923 9.99967C17.7923 5.70326 14.2971 2.20801 10.0007 2.20801M10.0007 19.1663C4.94615 19.1663 0.833984 15.0542 0.833984 9.99967C0.833984 4.94517 4.94615 0.833008 10.0007 0.833008C15.0552 0.833008 19.1673 4.94517 19.1673 9.99967C19.1673 15.0542 15.0552 19.1663 10.0007 19.1663" fill="black"/>
<path fill-rule="evenodd" clip-rule="evenodd" d="M13.1453 13.3845C13.0252 13.3845 12.9042 13.3533 12.7933 13.2882L9.33745 11.2267C9.13029 11.102 9.00195 10.8774 9.00195 10.6354V6.19141C9.00195 5.81191 9.30995 5.50391 9.68945 5.50391C10.0699 5.50391 10.377 5.81191 10.377 6.19141V10.2449L13.4982 12.1057C13.8236 12.301 13.9309 12.7227 13.7365 13.049C13.6073 13.2644 13.379 13.3845 13.1453 13.3845" fill="black"/>
</svg>
