<svg width="18" height="18" viewBox="0 0 18 18" fill="none" xmlns="http://www.w3.org/2000/svg">
<path d="M9.003 18C7.759 18 6.59233 17.7663 5.503 17.299C4.415 16.8317 3.46367 16.1943 2.649 15.387C1.83433 14.5797 1.189 13.6297 0.713001 12.537C0.237001 11.4443 -0.000665268 10.2787 1.3986e-06 9.04H1C1 10.14 1.21167 11.174 1.635 12.142C2.05767 13.1107 2.63167 13.9573 3.357 14.682C4.08233 15.4067 4.93 15.9787 5.9 16.398C6.87 16.8173 7.903 17.0267 8.999 17.026C11.2323 17.026 13.124 16.251 14.674 14.701C16.224 13.151 16.9993 11.259 17 9.025C17.0007 6.791 16.2257 4.89933 14.675 3.35C13.1243 1.80067 11.2327 1.02567 9 1.025C7.376 1.025 5.921 1.45167 4.635 2.305C3.35034 3.15833 2.39 4.27467 1.754 5.654H4.654V6.654H1.3986e-06V2H1V4.98C1.72467 3.49467 2.79467 2.29333 4.21 1.376C5.62533 0.458667 7.222 0 9 0C10.2453 0 11.4153 0.236333 12.51 0.709C13.6047 1.18167 14.5573 1.82233 15.368 2.631C16.1787 3.43967 16.8197 4.392 17.291 5.488C17.7623 6.584 17.9987 7.75367 18 8.997C18.0013 10.2403 17.7653 11.4103 17.292 12.507C16.8187 13.6037 16.1773 14.5567 15.368 15.366C14.5587 16.1753 13.6067 16.817 12.512 17.291C11.4173 17.765 10.2477 18.0013 9.003 18ZM6.116 12.77V8H7.116V6.885C7.116 6.36633 7.30033 5.92233 7.669 5.553C8.03767 5.18433 8.48133 5 9 5C9.51867 5 9.96233 5.18467 10.331 5.554C10.6997 5.92333 10.8843 6.36667 10.885 6.884V8H11.885V12.77H6.116ZM7.885 8H10.115V6.892C10.115 6.57867 10.0067 6.313 9.79 6.095C9.57333 5.877 9.31 5.76867 9 5.77C8.69 5.77133 8.42667 5.88 8.21 6.096C7.99333 6.312 7.88467 6.57767 7.884 6.893L7.885 8Z" fill="#929292"/>
</svg>
